<svg xmlns="http://www.w3.org/2000/svg" viewBox="0 0 1200 1500" width="1200" height="1500"><defs><filter id="shadow" x="-30%" y="-20%" width="160%" height="150%"><feDropShadow dx="0" dy="30" stdDeviation="34" flood-color="#0B0716" flood-opacity="0.35"/></filter><filter id="soft" x="-30%" y="-30%" width="160%" height="170%"><feDropShadow dx="0" dy="18" stdDeviation="22" flood-color="#0B0716" flood-opacity="0.22"/></filter></defs><rect x="0" y="0" width="1200" height="1500" rx="0" fill="#D5E4F3" /><circle cx="1050" cy="180" r="260" fill="#FFFFFF" opacity="0.35"/><g transform="translate(110 150)" filter="url(#soft)"><rect x="0" y="0" width="1180" height="1120" rx="18" fill="#FFFFFF" /><rect x="0" y="0" width="1180" height="52" rx="18" fill="#EEF2F7" /><rect x="0" y="34" width="1180" height="18" rx="0" fill="#EEF2F7" /><circle cx="28" cy="26" r="7" fill="#F87171" /><circle cx="50" cy="26" r="7" fill="#FBBF24" /><circle cx="72" cy="26" r="7" fill="#34D399" /><rect x="300" y="13" width="520" height="26" rx="13" fill="#FFFFFF" /><text x="560" y="31" font-family="-apple-system, BlinkMacSystemFont, 'SF Pro Text', 'Segoe UI', Helvetica, Arial, sans-serif" font-size="13" font-weight="500" fill="#5B6B7C" text-anchor="middle" >vigie.chu-exemple.fr/lits</text><rect x="0" y="52" width="88" height="1068" rx="0" fill="#0E3B47" /><rect x="28" y="96" width="32" height="32" rx="9" fill="#1C5563" /><rect x="28" y="160" width="32" height="32" rx="9" fill="#FFFFFF" opacity="0.9"/><rect x="28" y="224" width="32" height="32" rx="9" fill="#1C5563" /><rect x="28" y="288" width="32" height="32" rx="9" fill="#1C5563" /><rect x="28" y="352" width="32" height="32" rx="9" fill="#1C5563" /><rect x="28" y="416" width="32" height="32" rx="9" fill="#1C5563" /><text x="128" y="118" font-family="-apple-system, BlinkMacSystemFont, 'SF Pro Text', 'Segoe UI', Helvetica, Arial, sans-serif" font-size="30" font-weight="750" fill="#13293D" text-anchor="start" letter-spacing="-0.6">Lits disponibles</text><text x="128" y="146" font-family="-apple-system, BlinkMacSystemFont, 'SF Pro Text', 'Segoe UI', Helvetica, Arial, sans-serif" font-size="15" font-weight="400" fill="#5B6B7C" text-anchor="start" >Mardi 14 mai, 10:42 · Pôle médecine</text><rect x="128" y="176" width="222" height="112" rx="14" fill="#FFFFFF" stroke="#E2E8F0" stroke-width="1.5" /><rect x="128" y="176" width="6" height="112" rx="3" fill="#22A06B" /><text x="152" y="214" font-family="-apple-system, BlinkMacSystemFont, 'SF Pro Text', 'Segoe UI', Helvetica, Arial, sans-serif" font-size="15" font-weight="500" fill="#5B6B7C" text-anchor="start" >Lits libres</text><text x="152" y="266" font-family="-apple-system, BlinkMacSystemFont, 'SF Pro Text', 'Segoe UI', Helvetica, Arial, sans-serif" font-size="44" font-weight="750" fill="#13293D" text-anchor="start" letter-spacing="-1">34</text><rect x="366" y="176" width="222" height="112" rx="14" fill="#FFFFFF" stroke="#E2E8F0" stroke-width="1.5" /><rect x="366" y="176" width="6" height="112" rx="3" fill="#3B82F6" /><text x="390" y="214" font-family="-apple-system, BlinkMacSystemFont, 'SF Pro Text', 'Segoe UI', Helvetica, Arial, sans-serif" font-size="15" font-weight="500" fill="#5B6B7C" text-anchor="start" >Sorties prévues</text><text x="390" y="266" font-family="-apple-system, BlinkMacSystemFont, 'SF Pro Text', 'Segoe UI', Helvetica, Arial, sans-serif" font-size="44" font-weight="750" fill="#13293D" text-anchor="start" letter-spacing="-1">12</text><rect x="604" y="176" width="222" height="112" rx="14" fill="#FFFFFF" stroke="#E2E8F0" stroke-width="1.5" /><rect x="604" y="176" width="6" height="112" rx="3" fill="#F5A524" /><text x="628" y="214" font-family="-apple-system, BlinkMacSystemFont, 'SF Pro Text', 'Segoe UI', Helvetica, Arial, sans-serif" font-size="15" font-weight="500" fill="#5B6B7C" text-anchor="start" >En nettoyage</text><text x="628" y="266" font-family="-apple-system, BlinkMacSystemFont, 'SF Pro Text', 'Segoe UI', Helvetica, Arial, sans-serif" font-size="44" font-weight="750" fill="#13293D" text-anchor="start" letter-spacing="-1">9</text><rect x="842" y="176" width="222" height="112" rx="14" fill="#FFFFFF" stroke="#E2E8F0" stroke-width="1.5" /><rect x="842" y="176" width="6" height="112" rx="3" fill="#E5484D" /><text x="866" y="214" font-family="-apple-system, BlinkMacSystemFont, 'SF Pro Text', 'Segoe UI', Helvetica, Arial, sans-serif" font-size="15" font-weight="500" fill="#5B6B7C" text-anchor="start" >Attente urgences</text><text x="866" y="266" font-family="-apple-system, BlinkMacSystemFont, 'SF Pro Text', 'Segoe UI', Helvetica, Arial, sans-serif" font-size="44" font-weight="750" fill="#13293D" text-anchor="start" letter-spacing="-1">7</text><text x="128" y="344" font-family="-apple-system, BlinkMacSystemFont, 'SF Pro Text', 'Segoe UI', Helvetica, Arial, sans-serif" font-size="20" font-weight="700" fill="#13293D" text-anchor="start" >Carte des lits</text><rect x="128" y="362" width="16" height="16" rx="4" fill="#22A06B" /><text x="152" y="376" font-family="-apple-system, BlinkMacSystemFont, 'SF Pro Text', 'Segoe UI', Helvetica, Arial, sans-serif" font-size="14" font-weight="500" fill="#5B6B7C" text-anchor="start" >Libre</text><rect x="278" y="362" width="16" height="16" rx="4" fill="#CBD5E1" /><text x="302" y="376" font-family="-apple-system, BlinkMacSystemFont, 'SF Pro Text', 'Segoe UI', Helvetica, Arial, sans-serif" font-size="14" font-weight="500" fill="#5B6B7C" text-anchor="start" >Occupé</text><rect x="428" y="362" width="16" height="16" rx="4" fill="#F5A524" /><text x="452" y="376" font-family="-apple-system, BlinkMacSystemFont, 'SF Pro Text', 'Segoe UI', Helvetica, Arial, sans-serif" font-size="14" font-weight="500" fill="#5B6B7C" text-anchor="start" >Nettoyage</text><rect x="578" y="362" width="16" height="16" rx="4" fill="#3B82F6" /><text x="602" y="376" font-family="-apple-system, BlinkMacSystemFont, 'SF Pro Text', 'Segoe UI', Helvetica, Arial, sans-serif" font-size="14" font-weight="500" fill="#5B6B7C" text-anchor="start" >Sortie prévue</text><text x="128" y="436" font-family="-apple-system, BlinkMacSystemFont, 'SF Pro Text', 'Segoe UI', Helvetica, Arial, sans-serif" font-size="16" font-weight="650" fill="#13293D" text-anchor="start" >Cardiologie</text><text x="128" y="458" font-family="-apple-system, BlinkMacSystemFont, 'SF Pro Text', 'Segoe UI', Helvetica, Arial, sans-serif" font-size="13" font-weight="400" fill="#5B6B7C" text-anchor="start" >4 libres sur 18</text><rect x="330" y="414" width="38" height="52" rx="8" fill="#CBD5E1" /><rect x="376" y="414" width="38" height="52" rx="8" fill="#CBD5E1" /><rect x="422" y="414" width="38" height="52" rx="8" fill="#22A06B" opacity="0.95"/><text x="441" y="446" font-family="-apple-system, BlinkMacSystemFont, 'SF Pro Text', 'Segoe UI', Helvetica, Arial, sans-serif" font-size="12" font-weight="600" fill="#FFFFFF" text-anchor="middle" >202</text><rect x="468" y="414" width="38" height="52" rx="8" fill="#CBD5E1" /><rect x="514" y="414" width="38" height="52" rx="8" fill="#CBD5E1" /><rect x="560" y="414" width="38" height="52" rx="8" fill="#CBD5E1" /><rect x="606" y="414" width="38" height="52" rx="8" fill="#3B82F6" opacity="0.95"/><rect x="652" y="414" width="38" height="52" rx="8" fill="#22A06B" opacity="0.95"/><text x="671" y="446" font-family="-apple-system, BlinkMacSystemFont, 'SF Pro Text', 'Segoe UI', Helvetica, Arial, sans-serif" font-size="12" font-weight="600" fill="#FFFFFF" text-anchor="middle" >207</text><rect x="698" y="414" width="38" height="52" rx="8" fill="#CBD5E1" /><rect x="744" y="414" width="38" height="52" rx="8" fill="#CBD5E1" /><rect x="790" y="414" width="38" height="52" rx="8" fill="#22A06B" opacity="0.95"/><text x="809" y="446" font-family="-apple-system, BlinkMacSystemFont, 'SF Pro Text', 'Segoe UI', Helvetica, Arial, sans-serif" font-size="12" font-weight="600" fill="#FFFFFF" text-anchor="middle" >210</text><rect x="836" y="414" width="38" height="52" rx="8" fill="#CBD5E1" /><rect x="882" y="414" width="38" height="52" rx="8" fill="#CBD5E1" /><rect x="928" y="414" width="38" height="52" rx="8" fill="#CBD5E1" /><rect x="974" y="414" width="38" height="52" rx="8" fill="#CBD5E1" /><rect x="1020" y="414" width="38" height="52" rx="8" fill="#CBD5E1" /><rect x="1066" y="414" width="38" height="52" rx="8" fill="#CBD5E1" /><rect x="1112" y="414" width="38" height="52" rx="8" fill="#CBD5E1" /><text x="128" y="548" font-family="-apple-system, BlinkMacSystemFont, 'SF Pro Text', 'Segoe UI', Helvetica, Arial, sans-serif" font-size="16" font-weight="650" fill="#13293D" text-anchor="start" >Pneumologie</text><text x="128" y="570" font-family="-apple-system, BlinkMacSystemFont, 'SF Pro Text', 'Segoe UI', Helvetica, Arial, sans-serif" font-size="13" font-weight="400" fill="#5B6B7C" text-anchor="start" >5 libres sur 18</text><rect x="330" y="526" width="38" height="52" rx="8" fill="#22A06B" opacity="0.95"/><text x="349" y="558" font-family="-apple-system, BlinkMacSystemFont, 'SF Pro Text', 'Segoe UI', Helvetica, Arial, sans-serif" font-size="12" font-weight="600" fill="#FFFFFF" text-anchor="middle" >220</text><rect x="376" y="526" width="38" height="52" rx="8" fill="#CBD5E1" /><rect x="422" y="526" width="38" height="52" rx="8" fill="#CBD5E1" /><rect x="468" y="526" width="38" height="52" rx="8" fill="#22A06B" opacity="0.95"/><text x="487" y="558" font-family="-apple-system, BlinkMacSystemFont, 'SF Pro Text', 'Segoe UI', Helvetica, Arial, sans-serif" font-size="12" font-weight="600" fill="#FFFFFF" text-anchor="middle" >223</text><rect x="514" y="526" width="38" height="52" rx="8" fill="#CBD5E1" /><rect x="560" y="526" width="38" height="52" rx="8" fill="#22A06B" opacity="0.95"/><text x="579" y="558" font-family="-apple-system, BlinkMacSystemFont, 'SF Pro Text', 'Segoe UI', Helvetica, Arial, sans-serif" font-size="12" font-weight="600" fill="#FFFFFF" text-anchor="middle" >225</text><rect x="606" y="526" width="38" height="52" rx="8" fill="#CBD5E1" /><rect x="652" y="526" width="38" height="52" rx="8" fill="#22A06B" opacity="0.95"/><text x="671" y="558" font-family="-apple-system, BlinkMacSystemFont, 'SF Pro Text', 'Segoe UI', Helvetica, Arial, sans-serif" font-size="12" font-weight="600" fill="#FFFFFF" text-anchor="middle" >227</text><rect x="698" y="526" width="38" height="52" rx="8" fill="#CBD5E1" /><rect x="744" y="526" width="38" height="52" rx="8" fill="#CBD5E1" /><rect x="790" y="526" width="38" height="52" rx="8" fill="#F5A524" opacity="0.95"/><rect x="836" y="526" width="38" height="52" rx="8" fill="#CBD5E1" /><rect x="882" y="526" width="38" height="52" rx="8" fill="#CBD5E1" /><rect x="928" y="526" width="38" height="52" rx="8" fill="#CBD5E1" /><rect x="974" y="526" width="38" height="52" rx="8" fill="#CBD5E1" /><rect x="1020" y="526" width="38" height="52" rx="8" fill="#F5A524" opacity="0.95"/><rect x="1066" y="526" width="38" height="52" rx="8" fill="#CBD5E1" /><rect x="1112" y="526" width="38" height="52" rx="8" fill="#CBD5E1" /><text x="128" y="660" font-family="-apple-system, BlinkMacSystemFont, 'SF Pro Text', 'Segoe UI', Helvetica, Arial, sans-serif" font-size="16" font-weight="650" fill="#13293D" text-anchor="start" >Médecine interne</text><text x="128" y="682" font-family="-apple-system, BlinkMacSystemFont, 'SF Pro Text', 'Segoe UI', Helvetica, Arial, sans-serif" font-size="13" font-weight="400" fill="#5B6B7C" text-anchor="start" >2 libres sur 18</text><rect x="330" y="638" width="38" height="52" rx="8" fill="#CBD5E1" /><rect x="376" y="638" width="38" height="52" rx="8" fill="#3B82F6" opacity="0.95"/><rect x="422" y="638" width="38" height="52" rx="8" fill="#CBD5E1" /><rect x="468" y="638" width="38" height="52" rx="8" fill="#CBD5E1" /><rect x="514" y="638" width="38" height="52" rx="8" fill="#CBD5E1" /><rect x="560" y="638" width="38" height="52" rx="8" fill="#22A06B" opacity="0.95"/><text x="579" y="670" font-family="-apple-system, BlinkMacSystemFont, 'SF Pro Text', 'Segoe UI', Helvetica, Arial, sans-serif" font-size="12" font-weight="600" fill="#FFFFFF" text-anchor="middle" >245</text><rect x="606" y="638" width="38" height="52" rx="8" fill="#CBD5E1" /><rect x="652" y="638" width="38" height="52" rx="8" fill="#22A06B" opacity="0.95"/><text x="671" y="670" font-family="-apple-system, BlinkMacSystemFont, 'SF Pro Text', 'Segoe UI', Helvetica, Arial, sans-serif" font-size="12" font-weight="600" fill="#FFFFFF" text-anchor="middle" >247</text><rect x="698" y="638" width="38" height="52" rx="8" fill="#CBD5E1" /><rect x="744" y="638" width="38" height="52" rx="8" fill="#CBD5E1" /><rect x="790" y="638" width="38" height="52" rx="8" fill="#3B82F6" opacity="0.95"/><rect x="836" y="638" width="38" height="52" rx="8" fill="#22A06B" opacity="0.95"/><text x="855" y="670" font-family="-apple-system, BlinkMacSystemFont, 'SF Pro Text', 'Segoe UI', Helvetica, Arial, sans-serif" font-size="12" font-weight="600" fill="#FFFFFF" text-anchor="middle" >251</text><rect x="882" y="638" width="38" height="52" rx="8" fill="#22A06B" opacity="0.95"/><text x="901" y="670" font-family="-apple-system, BlinkMacSystemFont, 'SF Pro Text', 'Segoe UI', Helvetica, Arial, sans-serif" font-size="12" font-weight="600" fill="#FFFFFF" text-anchor="middle" >252</text><rect x="928" y="638" width="38" height="52" rx="8" fill="#3B82F6" opacity="0.95"/><rect x="974" y="638" width="38" height="52" rx="8" fill="#F5A524" opacity="0.95"/><rect x="1020" y="638" width="38" height="52" rx="8" fill="#CBD5E1" /><rect x="1066" y="638" width="38" height="52" rx="8" fill="#CBD5E1" /><rect x="1112" y="638" width="38" height="52" rx="8" fill="#CBD5E1" /><text x="128" y="772" font-family="-apple-system, BlinkMacSystemFont, 'SF Pro Text', 'Segoe UI', Helvetica, Arial, sans-serif" font-size="16" font-weight="650" fill="#13293D" text-anchor="start" >Gériatrie</text><text x="128" y="794" font-family="-apple-system, BlinkMacSystemFont, 'SF Pro Text', 'Segoe UI', Helvetica, Arial, sans-serif" font-size="13" font-weight="400" fill="#5B6B7C" text-anchor="start" >2 libres sur 18</text><rect x="330" y="750" width="38" height="52" rx="8" fill="#F5A524" opacity="0.95"/><rect x="376" y="750" width="38" height="52" rx="8" fill="#CBD5E1" /><rect x="422" y="750" width="38" height="52" rx="8" fill="#22A06B" opacity="0.95"/><text x="441" y="782" font-family="-apple-system, BlinkMacSystemFont, 'SF Pro Text', 'Segoe UI', Helvetica, Arial, sans-serif" font-size="12" font-weight="600" fill="#FFFFFF" text-anchor="middle" >262</text><rect x="468" y="750" width="38" height="52" rx="8" fill="#3B82F6" opacity="0.95"/><rect x="514" y="750" width="38" height="52" rx="8" fill="#22A06B" opacity="0.95"/><text x="533" y="782" font-family="-apple-system, BlinkMacSystemFont, 'SF Pro Text', 'Segoe UI', Helvetica, Arial, sans-serif" font-size="12" font-weight="600" fill="#FFFFFF" text-anchor="middle" >264</text><rect x="560" y="750" width="38" height="52" rx="8" fill="#F5A524" opacity="0.95"/><rect x="606" y="750" width="38" height="52" rx="8" fill="#CBD5E1" /><rect x="652" y="750" width="38" height="52" rx="8" fill="#CBD5E1" /><rect x="698" y="750" width="38" height="52" rx="8" fill="#CBD5E1" /><rect x="744" y="750" width="38" height="52" rx="8" fill="#CBD5E1" /><rect x="790" y="750" width="38" height="52" rx="8" fill="#CBD5E1" /><rect x="836" y="750" width="38" height="52" rx="8" fill="#3B82F6" opacity="0.95"/><rect x="882" y="750" width="38" height="52" rx="8" fill="#CBD5E1" /><rect x="928" y="750" width="38" height="52" rx="8" fill="#22A06B" opacity="0.95"/><text x="947" y="782" font-family="-apple-system, BlinkMacSystemFont, 'SF Pro Text', 'Segoe UI', Helvetica, Arial, sans-serif" font-size="12" font-weight="600" fill="#FFFFFF" text-anchor="middle" >273</text><rect x="974" y="750" width="38" height="52" rx="8" fill="#CBD5E1" /><rect x="1020" y="750" width="38" height="52" rx="8" fill="#22A06B" opacity="0.95"/><text x="1039" y="782" font-family="-apple-system, BlinkMacSystemFont, 'SF Pro Text', 'Segoe UI', Helvetica, Arial, sans-serif" font-size="12" font-weight="600" fill="#FFFFFF" text-anchor="middle" >275</text><rect x="1066" y="750" width="38" height="52" rx="8" fill="#CBD5E1" /><rect x="1112" y="750" width="38" height="52" rx="8" fill="#CBD5E1" /><text x="128" y="884" font-family="-apple-system, BlinkMacSystemFont, 'SF Pro Text', 'Segoe UI', Helvetica, Arial, sans-serif" font-size="16" font-weight="650" fill="#13293D" text-anchor="start" >Neurologie</text><text x="128" y="906" font-family="-apple-system, BlinkMacSystemFont, 'SF Pro Text', 'Segoe UI', Helvetica, Arial, sans-serif" font-size="13" font-weight="400" fill="#5B6B7C" text-anchor="start" >6 libres sur 18</text><rect x="330" y="862" width="38" height="52" rx="8" fill="#3B82F6" opacity="0.95"/><rect x="376" y="862" width="38" height="52" rx="8" fill="#3B82F6" opacity="0.95"/><rect x="422" y="862" width="38" height="52" rx="8" fill="#3B82F6" opacity="0.95"/><rect x="468" y="862" width="38" height="52" rx="8" fill="#22A06B" opacity="0.95"/><text x="487" y="894" font-family="-apple-system, BlinkMacSystemFont, 'SF Pro Text', 'Segoe UI', Helvetica, Arial, sans-serif" font-size="12" font-weight="600" fill="#FFFFFF" text-anchor="middle" >283</text><rect x="514" y="862" width="38" height="52" rx="8" fill="#22A06B" opacity="0.95"/><text x="533" y="894" font-family="-apple-system, BlinkMacSystemFont, 'SF Pro Text', 'Segoe UI', Helvetica, Arial, sans-serif" font-size="12" font-weight="600" fill="#FFFFFF" text-anchor="middle" >284</text><rect x="560" y="862" width="38" height="52" rx="8" fill="#CBD5E1" /><rect x="606" y="862" width="38" height="52" rx="8" fill="#CBD5E1" /><rect x="652" y="862" width="38" height="52" rx="8" fill="#F5A524" opacity="0.95"/><rect x="698" y="862" width="38" height="52" rx="8" fill="#22A06B" opacity="0.95"/><text x="717" y="894" font-family="-apple-system, BlinkMacSystemFont, 'SF Pro Text', 'Segoe UI', Helvetica, Arial, sans-serif" font-size="12" font-weight="600" fill="#FFFFFF" text-anchor="middle" >288</text><rect x="744" y="862" width="38" height="52" rx="8" fill="#CBD5E1" /><rect x="790" y="862" width="38" height="52" rx="8" fill="#22A06B" opacity="0.95"/><text x="809" y="894" font-family="-apple-system, BlinkMacSystemFont, 'SF Pro Text', 'Segoe UI', Helvetica, Arial, sans-serif" font-size="12" font-weight="600" fill="#FFFFFF" text-anchor="middle" >290</text><rect x="836" y="862" width="38" height="52" rx="8" fill="#F5A524" opacity="0.95"/><rect x="882" y="862" width="38" height="52" rx="8" fill="#22A06B" opacity="0.95"/><text x="901" y="894" font-family="-apple-system, BlinkMacSystemFont, 'SF Pro Text', 'Segoe UI', Helvetica, Arial, sans-serif" font-size="12" font-weight="600" fill="#FFFFFF" text-anchor="middle" >292</text><rect x="928" y="862" width="38" height="52" rx="8" fill="#F5A524" opacity="0.95"/><rect x="974" y="862" width="38" height="52" rx="8" fill="#CBD5E1" /><rect x="1020" y="862" width="38" height="52" rx="8" fill="#3B82F6" opacity="0.95"/><rect x="1066" y="862" width="38" height="52" rx="8" fill="#22A06B" opacity="0.95"/><text x="1085" y="894" font-family="-apple-system, BlinkMacSystemFont, 'SF Pro Text', 'Segoe UI', Helvetica, Arial, sans-serif" font-size="12" font-weight="600" fill="#FFFFFF" text-anchor="middle" >296</text><rect x="1112" y="862" width="38" height="52" rx="8" fill="#22A06B" opacity="0.95"/><text x="1131" y="894" font-family="-apple-system, BlinkMacSystemFont, 'SF Pro Text', 'Segoe UI', Helvetica, Arial, sans-serif" font-size="12" font-weight="600" fill="#FFFFFF" text-anchor="middle" >297</text><text x="128" y="996" font-family="-apple-system, BlinkMacSystemFont, 'SF Pro Text', 'Segoe UI', Helvetica, Arial, sans-serif" font-size="16" font-weight="650" fill="#13293D" text-anchor="start" >Endocrinologie</text><text x="128" y="1018" font-family="-apple-system, BlinkMacSystemFont, 'SF Pro Text', 'Segoe UI', Helvetica, Arial, sans-serif" font-size="13" font-weight="400" fill="#5B6B7C" text-anchor="start" >4 libres sur 18</text><rect x="330" y="974" width="38" height="52" rx="8" fill="#CBD5E1" /><rect x="376" y="974" width="38" height="52" rx="8" fill="#CBD5E1" /><rect x="422" y="974" width="38" height="52" rx="8" fill="#22A06B" opacity="0.95"/><text x="441" y="1006" font-family="-apple-system, BlinkMacSystemFont, 'SF Pro Text', 'Segoe UI', Helvetica, Arial, sans-serif" font-size="12" font-weight="600" fill="#FFFFFF" text-anchor="middle" >302</text><rect x="468" y="974" width="38" height="52" rx="8" fill="#22A06B" opacity="0.95"/><text x="487" y="1006" font-family="-apple-system, BlinkMacSystemFont, 'SF Pro Text', 'Segoe UI', Helvetica, Arial, sans-serif" font-size="12" font-weight="600" fill="#FFFFFF" text-anchor="middle" >303</text><rect x="514" y="974" width="38" height="52" rx="8" fill="#CBD5E1" /><rect x="560" y="974" width="38" height="52" rx="8" fill="#F5A524" opacity="0.95"/><rect x="606" y="974" width="38" height="52" rx="8" fill="#CBD5E1" /><rect x="652" y="974" width="38" height="52" rx="8" fill="#CBD5E1" /><rect x="698" y="974" width="38" height="52" rx="8" fill="#CBD5E1" /><rect x="744" y="974" width="38" height="52" rx="8" fill="#CBD5E1" /><rect x="790" y="974" width="38" height="52" rx="8" fill="#22A06B" opacity="0.95"/><text x="809" y="1006" font-family="-apple-system, BlinkMacSystemFont, 'SF Pro Text', 'Segoe UI', Helvetica, Arial, sans-serif" font-size="12" font-weight="600" fill="#FFFFFF" text-anchor="middle" >310</text><rect x="836" y="974" width="38" height="52" rx="8" fill="#CBD5E1" /><rect x="882" y="974" width="38" height="52" rx="8" fill="#CBD5E1" /><rect x="928" y="974" width="38" height="52" rx="8" fill="#22A06B" opacity="0.95"/><text x="947" y="1006" font-family="-apple-system, BlinkMacSystemFont, 'SF Pro Text', 'Segoe UI', Helvetica, Arial, sans-serif" font-size="12" font-weight="600" fill="#FFFFFF" text-anchor="middle" >313</text><rect x="974" y="974" width="38" height="52" rx="8" fill="#CBD5E1" /><rect x="1020" y="974" width="38" height="52" rx="8" fill="#CBD5E1" /><rect x="1066" y="974" width="38" height="52" rx="8" fill="#F5A524" opacity="0.95"/><rect x="1112" y="974" width="38" height="52" rx="8" fill="#CBD5E1" /></g><g transform="translate(60 1170)" filter="url(#shadow)"><rect x="0" y="0" width="420" height="250" rx="20" fill="#FFFFFF" /><rect x="28" y="30" width="76" height="26" rx="13" fill="#DCF3E8" /><text x="66" y="48" font-family="-apple-system, BlinkMacSystemFont, 'SF Pro Text', 'Segoe UI', Helvetica, Arial, sans-serif" font-size="13" font-weight="650" fill="#22A06B" text-anchor="middle" >Libre</text><text x="28" y="98" font-family="-apple-system, BlinkMacSystemFont, 'SF Pro Text', 'Segoe UI', Helvetica, Arial, sans-serif" font-size="24" font-weight="750" fill="#13293D" text-anchor="start" letter-spacing="-0.4">Chambre 214, lit B</text><text x="28" y="128" font-family="-apple-system, BlinkMacSystemFont, 'SF Pro Text', 'Segoe UI', Helvetica, Arial, sans-serif" font-size="15" font-weight="400" fill="#5B6B7C" text-anchor="start" >Nettoyage terminé à 10:15</text><text x="28" y="152" font-family="-apple-system, BlinkMacSystemFont, 'SF Pro Text', 'Segoe UI', Helvetica, Arial, sans-serif" font-size="15" font-weight="400" fill="#5B6B7C" text-anchor="start" >Cardiologie · 2e étage, aile nord</text><rect x="28" y="180" width="230" height="46" rx="23" fill="#0E3B47" /><text x="143" y="209" font-family="-apple-system, BlinkMacSystemFont, 'SF Pro Text', 'Segoe UI', Helvetica, Arial, sans-serif" font-size="15" font-weight="650" fill="#FFFFFF" text-anchor="middle" >Attribuer ce lit</text><text x="300" y="209" font-family="-apple-system, BlinkMacSystemFont, 'SF Pro Text', 'Segoe UI', Helvetica, Arial, sans-serif" font-size="15" font-weight="600" fill="#0E3B47" text-anchor="middle" >Détails</text></g></svg>
