<svg xmlns="http://www.w3.org/2000/svg" viewBox="0 0 1600 1200" width="1600" height="1200"><defs><filter id="shadow" x="-30%" y="-20%" width="160%" height="150%"><feDropShadow dx="0" dy="30" stdDeviation="34" flood-color="#0B0716" flood-opacity="0.35"/></filter><filter id="soft" x="-30%" y="-30%" width="160%" height="170%"><feDropShadow dx="0" dy="18" stdDeviation="22" flood-color="#0B0716" flood-opacity="0.22"/></filter></defs><rect x="0" y="0" width="1600" height="1200" rx="0" fill="#F6D0D0" /><circle cx="1450" cy="1060" r="280" fill="#7A2330" opacity="0.08"/><circle cx="160" cy="160" r="180" fill="#FFFFFF" opacity="0.35"/><g transform="translate(300 170)" filter="url(#shadow)"><rect width="420.0" height="908.9" rx="65.8" fill="#15111F"/><rect x="2.1" y="2.1" width="415.8" height="904.7" rx="63.6" fill="none" stroke="#3A3446" stroke-width="2.1"/><clipPath id="clip14"><rect x="12.7" y="12.7" width="394.5" height="883.5" rx="53.0"/></clipPath><g clip-path="url(#clip14)"><g transform="translate(12.7 12.7) scale(1.0606)"><rect x="0" y="0" width="372" height="833" rx="0" fill="#FFFFFF" /><text x="30" y="36" font-family="-apple-system, BlinkMacSystemFont, 'SF Pro Text', 'Segoe UI', Helvetica, Arial, sans-serif" font-size="15" font-weight="600" fill="#2A1215" text-anchor="start" >9:41</text><rect x="286" y="26" width="3" height="8" rx="1" fill="#2A1215" /><rect x="291" y="23" width="3" height="11" rx="1" fill="#2A1215" /><rect x="296" y="20" width="3" height="14" rx="1" fill="#2A1215" /><rect x="301" y="18" width="3" height="16" rx="1" fill="#2A1215" /><path d="M314 24a10 10 0 0 1 14 0M317 28a6 6 0 0 1 8 0" stroke="#2A1215" stroke-width="2" fill="none" stroke-linecap="round"/><circle cx="321" cy="32" r="1.6" fill="#2A1215" /><rect x="334" y="21" width="24" height="12" rx="3.5" fill="none" stroke="#2A1215" stroke-width="1.2" /><rect x="336.5" y="23.5" width="17" height="7" rx="2" fill="#2A1215" /><rect x="359" y="25" width="2" height="4" rx="1" fill="#2A1215" /><path d="M34 78 L26 88 L34 98" stroke="#2A1215" stroke-width="2.5" fill="none" stroke-linecap="round" stroke-linejoin="round"/><text x="52" y="94" font-family="-apple-system, BlinkMacSystemFont, 'SF Pro Text', 'Segoe UI', Helvetica, Arial, sans-serif" font-size="22" font-weight="800" fill="#2A1215" text-anchor="start" letter-spacing="-0.4">Chantier Dumont</text><text x="24" y="126" font-family="-apple-system, BlinkMacSystemFont, 'SF Pro Text', 'Segoe UI', Helvetica, Arial, sans-serif" font-size="13" font-weight="500" fill="#7B6A6C" text-anchor="start" >Rénovation de cuisine, Lyon 6e</text><clipPath id="ph13"><rect x="16" y="144" width="340" height="214" rx="16"/></clipPath><g clip-path="url(#ph13)"><rect x="16" y="144" width="340" height="214" rx="0" fill="#D9CBBB" /><rect x="28" y="158" width="40" height="32" rx="3" fill="#FFFFFF" opacity="0.9"/><rect x="74" y="158" width="40" height="32" rx="3" fill="#FFFFFF" opacity="0.9"/><rect x="120" y="158" width="40" height="32" rx="3" fill="#FFFFFF" opacity="0.9"/><rect x="166" y="158" width="40" height="32" rx="3" fill="#FFFFFF" opacity="0.9"/><rect x="212" y="158" width="40" height="32" rx="3" fill="#FFFFFF" opacity="0.9"/><rect x="28" y="196" width="40" height="32" rx="3" fill="#FFFFFF" opacity="0.9"/><rect x="74" y="196" width="40" height="32" rx="3" fill="#FFFFFF" opacity="0.9"/><rect x="120" y="196" width="40" height="32" rx="3" fill="#FFFFFF" opacity="0.9"/><rect x="166" y="196" width="40" height="32" rx="3" fill="#FFFFFF" opacity="0.9"/><rect x="212" y="196" width="40" height="32" rx="3" fill="#FFFFFF" opacity="0.9"/><rect x="28" y="234" width="40" height="32" rx="3" fill="#FFFFFF" opacity="0.9"/><rect x="74" y="234" width="40" height="32" rx="3" fill="#FFFFFF" opacity="0.9"/><rect x="120" y="234" width="40" height="32" rx="3" fill="#FFFFFF" opacity="0.9"/><rect x="166" y="234" width="40" height="32" rx="3" fill="#FFFFFF" opacity="0.9"/><rect x="212" y="234" width="40" height="32" rx="3" fill="#FFFFFF" opacity="0.9"/><rect x="258" y="234" width="40" height="32" rx="3" fill="#FFFFFF" opacity="0.9"/><rect x="28" y="272" width="40" height="32" rx="3" fill="#FFFFFF" opacity="0.9"/><rect x="74" y="272" width="40" height="32" rx="3" fill="#FFFFFF" opacity="0.9"/><rect x="120" y="272" width="40" height="32" rx="3" fill="#FFFFFF" opacity="0.9"/><rect x="166" y="272" width="40" height="32" rx="3" fill="#FFFFFF" opacity="0.9"/><rect x="212" y="272" width="40" height="32" rx="3" fill="#FFFFFF" opacity="0.9"/><rect x="258" y="272" width="40" height="32" rx="3" fill="#FFFFFF" opacity="0.9"/><rect x="304" y="272" width="40" height="32" rx="3" fill="#FFFFFF" opacity="0.9"/><rect x="28" y="310" width="40" height="32" rx="3" fill="#FFFFFF" opacity="0.9"/><rect x="74" y="310" width="40" height="32" rx="3" fill="#FFFFFF" opacity="0.9"/><rect x="120" y="310" width="40" height="32" rx="3" fill="#FFFFFF" opacity="0.9"/><rect x="166" y="310" width="40" height="32" rx="3" fill="#FFFFFF" opacity="0.9"/><rect x="212" y="310" width="40" height="32" rx="3" fill="#FFFFFF" opacity="0.9"/><rect x="258" y="310" width="40" height="32" rx="3" fill="#FFFFFF" opacity="0.9"/><rect x="304" y="310" width="40" height="32" rx="3" fill="#FFFFFF" opacity="0.9"/><rect x="264" y="164" width="8" height="194" rx="2" fill="#B7884E" /><rect x="308" y="164" width="8" height="194" rx="2" fill="#B7884E" /><rect x="264" y="190" width="52" height="7" rx="2" fill="#B7884E" /><rect x="264" y="230" width="52" height="7" rx="2" fill="#B7884E" /><rect x="264" y="270" width="52" height="7" rx="2" fill="#B7884E" /><rect x="264" y="310" width="52" height="7" rx="2" fill="#B7884E" /><rect x="30" y="314" width="150" height="30" rx="15" fill="#FFFFFF" opacity="0.92"/><text x="105" y="334" font-family="-apple-system, BlinkMacSystemFont, 'SF Pro Text', 'Segoe UI', Helvetica, Arial, sans-serif" font-size="12" font-weight="600" fill="#2A1215" text-anchor="middle" >Aujourd’hui, 10:24</text></g><rect x="16" y="374" width="340" height="60" rx="14" fill="#FBEDED" /><circle cx="48" cy="404" r="18" fill="#7A2330" /><path d="M43 395 L56 404 L43 413 Z" fill="#FFFFFF"/><rect x="78" y="399.0" width="5" height="10" rx="2.5" fill="#7A2330" opacity="0.55"/><rect x="88" y="395.0" width="5" height="18" rx="2.5" fill="#7A2330" opacity="0.55"/><rect x="98" y="391.0" width="5" height="26" rx="2.5" fill="#7A2330" opacity="0.55"/><rect x="108" y="397.0" width="5" height="14" rx="2.5" fill="#7A2330" opacity="0.55"/><rect x="118" y="389.0" width="5" height="30" rx="2.5" fill="#7A2330" opacity="0.55"/><rect x="128" y="393.0" width="5" height="22" rx="2.5" fill="#7A2330" opacity="0.55"/><rect x="138" y="398.0" width="5" height="12" rx="2.5" fill="#7A2330" opacity="0.55"/><rect x="148" y="390.0" width="5" height="28" rx="2.5" fill="#7A2330" opacity="0.55"/><rect x="158" y="387.0" width="5" height="34" rx="2.5" fill="#7A2330" opacity="0.55"/><rect x="168" y="394.0" width="5" height="20" rx="2.5" fill="#7A2330" opacity="0.55"/><rect x="178" y="396.0" width="5" height="16" rx="2.5" fill="#7A2330" opacity="0.55"/><rect x="188" y="391.0" width="5" height="26" rx="2.5" fill="#7A2330" opacity="0.55"/><rect x="198" y="398.0" width="5" height="12" rx="2.5" fill="#7A2330" opacity="0.55"/><rect x="208" y="393.0" width="5" height="22" rx="2.5" fill="#7A2330" opacity="0.55"/><rect x="218" y="389.0" width="5" height="30" rx="2.5" fill="#7A2330" opacity="0.55"/><rect x="228" y="395.0" width="5" height="18" rx="2.5" fill="#7A2330" opacity="0.55"/><rect x="238" y="399.0" width="5" height="10" rx="2.5" fill="#7A2330" opacity="0.55"/><rect x="248" y="392.0" width="5" height="24" rx="2.5" fill="#7A2330" opacity="0.55"/><rect x="258" y="397.0" width="5" height="14" rx="2.5" fill="#7A2330" opacity="0.55"/><rect x="268" y="400.0" width="5" height="8" rx="2.5" fill="#7A2330" opacity="0.55"/><text x="340" y="409" font-family="-apple-system, BlinkMacSystemFont, 'SF Pro Text', 'Segoe UI', Helvetica, Arial, sans-serif" font-size="13" font-weight="650" fill="#7A2330" text-anchor="end" >0:42</text><rect x="16" y="450" width="340" height="46" rx="23" fill="#F3EFEF" /><rect x="130" y="454" width="112" height="38" rx="19" fill="#FFFFFF" filter="url(#soft)"/><text x="72" y="478" font-family="-apple-system, BlinkMacSystemFont, 'SF Pro Text', 'Segoe UI', Helvetica, Arial, sans-serif" font-size="14" font-weight="500" fill="#7B6A6C" text-anchor="middle" >À faire</text><text x="186" y="478" font-family="-apple-system, BlinkMacSystemFont, 'SF Pro Text', 'Segoe UI', Helvetica, Arial, sans-serif" font-size="14" font-weight="750" fill="#7A2330" text-anchor="middle" >En cours</text><text x="300" y="478" font-family="-apple-system, BlinkMacSystemFont, 'SF Pro Text', 'Segoe UI', Helvetica, Arial, sans-serif" font-size="14" font-weight="500" fill="#7B6A6C" text-anchor="middle" >Terminé</text><text x="24" y="532" font-family="-apple-system, BlinkMacSystemFont, 'SF Pro Text', 'Segoe UI', Helvetica, Arial, sans-serif" font-size="16" font-weight="750" fill="#2A1215" text-anchor="start" >Étapes</text><circle cx="36" cy="566" r="12" fill="#7A2330" /><path d="M30.9 566 L34.3 569.4 L41.1 561.75" stroke="#FFFFFF" stroke-width="2.2" fill="none" stroke-linecap="round" stroke-linejoin="round"/><text x="58" y="571" font-family="-apple-system, BlinkMacSystemFont, 'SF Pro Text', 'Segoe UI', Helvetica, Arial, sans-serif" font-size="15" font-weight="500" fill="#7B6A6C" text-anchor="start" >Dépose de la faïence</text><circle cx="36" cy="608" r="12" fill="#7A2330" /><path d="M30.9 608 L34.3 611.4 L41.1 603.75" stroke="#FFFFFF" stroke-width="2.2" fill="none" stroke-linecap="round" stroke-linejoin="round"/><text x="58" y="613" font-family="-apple-system, BlinkMacSystemFont, 'SF Pro Text', 'Segoe UI', Helvetica, Arial, sans-serif" font-size="15" font-weight="500" fill="#7B6A6C" text-anchor="start" >Reprise de la plomberie</text><circle cx="36" cy="650" r="12" fill="#FFFFFF" stroke="#C9B5B7" stroke-width="2" /><text x="58" y="655" font-family="-apple-system, BlinkMacSystemFont, 'SF Pro Text', 'Segoe UI', Helvetica, Arial, sans-serif" font-size="15" font-weight="500" fill="#2A1215" text-anchor="start" >Pose du plan de travail</text><circle cx="36" cy="692" r="12" fill="#FFFFFF" stroke="#C9B5B7" stroke-width="2" /><text x="58" y="697" font-family="-apple-system, BlinkMacSystemFont, 'SF Pro Text', 'Segoe UI', Helvetica, Arial, sans-serif" font-size="15" font-weight="500" fill="#2A1215" text-anchor="start" >Joints et finitions</text><rect x="16" y="724" width="340" height="56" rx="28" fill="#7A2330" /><rect x="98" y="743" width="24" height="18" rx="4" fill="none" stroke="#FFFFFF" stroke-width="2" /><circle cx="110" cy="752" r="5" fill="none" stroke="#FFFFFF" stroke-width="2" /><text x="208" y="757" font-family="-apple-system, BlinkMacSystemFont, 'SF Pro Text', 'Segoe UI', Helvetica, Arial, sans-serif" font-size="16" font-weight="650" fill="#FFFFFF" text-anchor="middle" >Ajouter une photo</text><rect x="136" y="816" width="100" height="5" rx="2.5" fill="#2A1215" /></g></g><rect x="151.7" y="23.3" width="116.7" height="33.9" rx="17.0" fill="#000"/></g><g transform="translate(870 250)" filter="url(#shadow)"><rect width="420.0" height="908.9" rx="65.8" fill="#15111F"/><rect x="2.1" y="2.1" width="415.8" height="904.7" rx="63.6" fill="none" stroke="#3A3446" stroke-width="2.1"/><clipPath id="clip15"><rect x="12.7" y="12.7" width="394.5" height="883.5" rx="53.0"/></clipPath><g clip-path="url(#clip15)"><g transform="translate(12.7 12.7) scale(1.0606)"><rect x="0" y="0" width="372" height="833" rx="0" fill="#FBF7F7" /><text x="30" y="36" font-family="-apple-system, BlinkMacSystemFont, 'SF Pro Text', 'Segoe UI', Helvetica, Arial, sans-serif" font-size="15" font-weight="600" fill="#2A1215" text-anchor="start" >9:41</text><rect x="286" y="26" width="3" height="8" rx="1" fill="#2A1215" /><rect x="291" y="23" width="3" height="11" rx="1" fill="#2A1215" /><rect x="296" y="20" width="3" height="14" rx="1" fill="#2A1215" /><rect x="301" y="18" width="3" height="16" rx="1" fill="#2A1215" /><path d="M314 24a10 10 0 0 1 14 0M317 28a6 6 0 0 1 8 0" stroke="#2A1215" stroke-width="2" fill="none" stroke-linecap="round"/><circle cx="321" cy="32" r="1.6" fill="#2A1215" /><rect x="334" y="21" width="24" height="12" rx="3.5" fill="none" stroke="#2A1215" stroke-width="1.2" /><rect x="336.5" y="23.5" width="17" height="7" rx="2" fill="#2A1215" /><rect x="359" y="25" width="2" height="4" rx="1" fill="#2A1215" /><text x="24" y="110" font-family="-apple-system, BlinkMacSystemFont, 'SF Pro Text', 'Segoe UI', Helvetica, Arial, sans-serif" font-size="25" font-weight="800" fill="#2A1215" text-anchor="start" letter-spacing="-0.5">Rapport du 14 juin</text><text x="24" y="136" font-family="-apple-system, BlinkMacSystemFont, 'SF Pro Text', 'Segoe UI', Helvetica, Arial, sans-serif" font-size="13" font-weight="500" fill="#7B6A6C" text-anchor="start" >Rédigé automatiquement à partir de vos notes</text><rect x="16" y="156" width="340" height="104" rx="16" fill="#FFFFFF" stroke="#EFE3E3" stroke-width="1.5" /><text x="30" y="200" font-family="-apple-system, BlinkMacSystemFont, 'SF Pro Text', 'Segoe UI', Helvetica, Arial, sans-serif" font-size="26" font-weight="800" fill="#7A2330" text-anchor="start" >3</text><text x="30" y="230" font-family="-apple-system, BlinkMacSystemFont, 'SF Pro Text', 'Segoe UI', Helvetica, Arial, sans-serif" font-size="13" font-weight="500" fill="#7B6A6C" text-anchor="start" >chantiers</text><text x="142" y="200" font-family="-apple-system, BlinkMacSystemFont, 'SF Pro Text', 'Segoe UI', Helvetica, Arial, sans-serif" font-size="26" font-weight="800" fill="#7A2330" text-anchor="start" >11</text><text x="142" y="230" font-family="-apple-system, BlinkMacSystemFont, 'SF Pro Text', 'Segoe UI', Helvetica, Arial, sans-serif" font-size="13" font-weight="500" fill="#7B6A6C" text-anchor="start" >photos</text><text x="254" y="200" font-family="-apple-system, BlinkMacSystemFont, 'SF Pro Text', 'Segoe UI', Helvetica, Arial, sans-serif" font-size="26" font-weight="800" fill="#7A2330" text-anchor="start" >2</text><text x="254" y="230" font-family="-apple-system, BlinkMacSystemFont, 'SF Pro Text', 'Segoe UI', Helvetica, Arial, sans-serif" font-size="13" font-weight="500" fill="#7B6A6C" text-anchor="start" >notes vocales</text><rect x="16" y="280" width="340" height="110" rx="16" fill="#FFFFFF" stroke="#EFE3E3" stroke-width="1.5" /><rect x="32" y="295" width="80" height="80" rx="10" fill="#D9CBBB" /><rect x="44" y="310" width="56" height="50" rx="3" fill="#FFFFFF" opacity="0.7"/><text x="128" y="320" font-family="-apple-system, BlinkMacSystemFont, 'SF Pro Text', 'Segoe UI', Helvetica, Arial, sans-serif" font-size="15" font-weight="700" fill="#2A1215" text-anchor="start" >Dumont, Cuisine</text><rect x="128" y="340" width="200" height="8" rx="4" fill="#F1E4E4" /><rect x="128" y="340" width="144.0" height="8" rx="4" fill="#7A2330" /><text x="128" y="370" font-family="-apple-system, BlinkMacSystemFont, 'SF Pro Text', 'Segoe UI', Helvetica, Arial, sans-serif" font-size="13" font-weight="500" fill="#7B6A6C" text-anchor="start" >72 % terminé</text><rect x="16" y="404" width="340" height="110" rx="16" fill="#FFFFFF" stroke="#EFE3E3" stroke-width="1.5" /><rect x="32" y="419" width="80" height="80" rx="10" fill="#C9DCE8" /><rect x="44" y="434" width="56" height="50" rx="3" fill="#FFFFFF" opacity="0.7"/><text x="128" y="444" font-family="-apple-system, BlinkMacSystemFont, 'SF Pro Text', 'Segoe UI', Helvetica, Arial, sans-serif" font-size="15" font-weight="700" fill="#2A1215" text-anchor="start" >Martin, Salle de bain</text><rect x="128" y="464" width="200" height="8" rx="4" fill="#F1E4E4" /><rect x="128" y="464" width="80.0" height="8" rx="4" fill="#7A2330" /><text x="128" y="494" font-family="-apple-system, BlinkMacSystemFont, 'SF Pro Text', 'Segoe UI', Helvetica, Arial, sans-serif" font-size="13" font-weight="500" fill="#7B6A6C" text-anchor="start" >40 % terminé</text><rect x="16" y="528" width="340" height="110" rx="16" fill="#FFFFFF" stroke="#EFE3E3" stroke-width="1.5" /><rect x="32" y="543" width="80" height="80" rx="10" fill="#E6D3B8" /><rect x="44" y="558" width="56" height="50" rx="3" fill="#FFFFFF" opacity="0.7"/><text x="128" y="568" font-family="-apple-system, BlinkMacSystemFont, 'SF Pro Text', 'Segoe UI', Helvetica, Arial, sans-serif" font-size="15" font-weight="700" fill="#2A1215" text-anchor="start" >Leroy, Façade</text><rect x="128" y="588" width="200" height="8" rx="4" fill="#F1E4E4" /><rect x="128" y="588" width="180.0" height="8" rx="4" fill="#7A2330" /><text x="128" y="618" font-family="-apple-system, BlinkMacSystemFont, 'SF Pro Text', 'Segoe UI', Helvetica, Arial, sans-serif" font-size="13" font-weight="500" fill="#7B6A6C" text-anchor="start" >90 % terminé</text><rect x="16" y="724" width="340" height="56" rx="28" fill="#7A2330" /><text x="186" y="758" font-family="-apple-system, BlinkMacSystemFont, 'SF Pro Text', 'Segoe UI', Helvetica, Arial, sans-serif" font-size="16" font-weight="650" fill="#FFFFFF" text-anchor="middle" >Envoyer au client</text><rect x="136" y="816" width="100" height="5" rx="2.5" fill="#2A1215" /></g></g><rect x="151.7" y="23.3" width="116.7" height="33.9" rx="17.0" fill="#000"/></g><g transform="translate(650 70)" filter="url(#soft)"><rect x="0" y="0" width="320" height="92" rx="22" fill="#FFFFFF" /><circle cx="46" cy="46" r="22" fill="#F8DCDC" /><path d="M38.8 46 L43.6 50.8 L53.2 40.0" stroke="#7A2330" stroke-width="3" fill="none" stroke-linecap="round" stroke-linejoin="round"/><text x="80" y="40" font-family="-apple-system, BlinkMacSystemFont, 'SF Pro Text', 'Segoe UI', Helvetica, Arial, sans-serif" font-size="14" font-weight="500" fill="#6B7280" text-anchor="start" >Rapport envoyé</text><text x="80" y="68" font-family="-apple-system, BlinkMacSystemFont, 'SF Pro Text', 'Segoe UI', Helvetica, Arial, sans-serif" font-size="20" font-weight="700" fill="#2A1215" text-anchor="start" >M. Dumont l’a ouvert</text></g></svg>
